%TF.GenerationSoftware,KiCad,Pcbnew,8.0.6-8.0.6-0~ubuntu22.04.1*%
%TF.CreationDate,2025-01-20T13:57:26-08:00*%
%TF.ProjectId,uv_abc_sensor,75765f61-6263-45f7-9365-6e736f722e6b,rev?*%
%TF.SameCoordinates,Original*%
%TF.FileFunction,Copper,L1,Top*%
%TF.FilePolarity,Positive*%
%FSLAX46Y46*%
G04 Gerber Fmt 4.6, Leading zero omitted, Abs format (unit mm)*
G04 Created by KiCad (PCBNEW 8.0.6-8.0.6-0~ubuntu22.04.1) date 2025-01-20 13:57:26*
%MOMM*%
%LPD*%
G01*
G04 APERTURE LIST*
G04 Aperture macros list*
%AMRoundRect*
0 Rectangle with rounded corners*
0 $1 Rounding radius*
0 $2 $3 $4 $5 $6 $7 $8 $9 X,Y pos of 4 corners*
0 Add a 4 corners polygon primitive as box body*
4,1,4,$2,$3,$4,$5,$6,$7,$8,$9,$2,$3,0*
0 Add four circle primitives for the rounded corners*
1,1,$1+$1,$2,$3*
1,1,$1+$1,$4,$5*
1,1,$1+$1,$6,$7*
1,1,$1+$1,$8,$9*
0 Add four rect primitives between the rounded corners*
20,1,$1+$1,$2,$3,$4,$5,0*
20,1,$1+$1,$4,$5,$6,$7,0*
20,1,$1+$1,$6,$7,$8,$9,0*
20,1,$1+$1,$8,$9,$2,$3,0*%
G04 Aperture macros list end*
%TA.AperFunction,SMDPad,CuDef*%
%ADD10R,0.340000X0.340000*%
%TD*%
%TA.AperFunction,SMDPad,CuDef*%
%ADD11R,0.340000X0.330000*%
%TD*%
%TA.AperFunction,SMDPad,CuDef*%
%ADD12RoundRect,0.135000X0.185000X-0.135000X0.185000X0.135000X-0.185000X0.135000X-0.185000X-0.135000X0*%
%TD*%
%TA.AperFunction,SMDPad,CuDef*%
%ADD13R,3.000000X0.800000*%
%TD*%
%TA.AperFunction,SMDPad,CuDef*%
%ADD14R,1.600000X0.400000*%
%TD*%
%TA.AperFunction,SMDPad,CuDef*%
%ADD15RoundRect,0.140000X-0.170000X0.140000X-0.170000X-0.140000X0.170000X-0.140000X0.170000X0.140000X0*%
%TD*%
%TA.AperFunction,ComponentPad*%
%ADD16C,3.570000*%
%TD*%
%TA.AperFunction,SMDPad,CuDef*%
%ADD17RoundRect,0.135000X0.135000X0.185000X-0.135000X0.185000X-0.135000X-0.185000X0.135000X-0.185000X0*%
%TD*%
%TA.AperFunction,SMDPad,CuDef*%
%ADD18RoundRect,0.135000X-0.185000X0.135000X-0.185000X-0.135000X0.185000X-0.135000X0.185000X0.135000X0*%
%TD*%
%TA.AperFunction,SMDPad,CuDef*%
%ADD19RoundRect,0.150000X-0.512500X-0.150000X0.512500X-0.150000X0.512500X0.150000X-0.512500X0.150000X0*%
%TD*%
%TA.AperFunction,SMDPad,CuDef*%
%ADD20RoundRect,0.140000X0.140000X0.170000X-0.140000X0.170000X-0.140000X-0.170000X0.140000X-0.170000X0*%
%TD*%
%TA.AperFunction,SMDPad,CuDef*%
%ADD21RoundRect,0.135000X-0.135000X-0.185000X0.135000X-0.185000X0.135000X0.185000X-0.135000X0.185000X0*%
%TD*%
%TA.AperFunction,SMDPad,CuDef*%
%ADD22RoundRect,0.150000X-0.150000X0.587500X-0.150000X-0.587500X0.150000X-0.587500X0.150000X0.587500X0*%
%TD*%
%TA.AperFunction,ViaPad*%
%ADD23C,0.800000*%
%TD*%
%TA.AperFunction,Conductor*%
%ADD24C,0.250000*%
%TD*%
G04 APERTURE END LIST*
D10*
%TO.P,U1,1,VSSA*%
%TO.N,GND*%
X62750000Y-58485800D03*
%TO.P,U1,2,VSSA*%
X63250000Y-58485800D03*
%TO.P,U1,3,VDDA*%
%TO.N,+3.3V*%
X63750000Y-58485800D03*
%TO.P,U1,4,REXT*%
%TO.N,Net-(U1-REXT)*%
X64250000Y-58485800D03*
%TO.P,U1,5,VSSA*%
%TO.N,GND*%
X64550000Y-59310800D03*
%TO.P,U1,6,VSSA*%
X64550000Y-59810800D03*
%TO.P,U1,7,A1*%
%TO.N,Net-(JP1-A)*%
X64550000Y-60310800D03*
D11*
%TO.P,U1,8,SYN*%
%TO.N,unconnected-(U1-SYN-Pad8)*%
X64550000Y-60810800D03*
D10*
%TO.P,U1,9,READY*%
%TO.N,unconnected-(U1-READY-Pad9)*%
X64250000Y-61635800D03*
%TO.P,U1,10,VDDD*%
%TO.N,+3.3V*%
X63750000Y-61635800D03*
%TO.P,U1,11,VSSD*%
%TO.N,GND*%
X63250000Y-61635800D03*
%TO.P,U1,12,SDA*%
%TO.N,/SDA_3V3*%
X62750000Y-61635800D03*
%TO.P,U1,13,SCL*%
%TO.N,/SCL_3V3*%
X62450000Y-60810800D03*
%TO.P,U1,14,A0*%
%TO.N,Net-(JP2-A)*%
X62450000Y-60310800D03*
%TO.P,U1,15,VSSA*%
%TO.N,GND*%
X62450000Y-59810800D03*
%TO.P,U1,16,VSSA*%
X62450000Y-59310800D03*
%TD*%
D12*
%TO.P,R2,1*%
%TO.N,VCC*%
X60833000Y-66831400D03*
%TO.P,R2,2*%
%TO.N,/SCL*%
X60833000Y-65811400D03*
%TD*%
D13*
%TO.P,J2,*%
%TO.N,*%
X74041000Y-56930000D03*
X74041000Y-62230000D03*
D14*
%TO.P,J2,1,Pin_1*%
%TO.N,GND*%
X71716000Y-61080000D03*
%TO.P,J2,2,Pin_2*%
%TO.N,VCC*%
X71716000Y-60080000D03*
%TO.P,J2,3,Pin_3*%
%TO.N,/SDA*%
X71716000Y-59080000D03*
%TO.P,J2,4,Pin_4*%
%TO.N,/SCL*%
X71716000Y-58080000D03*
%TD*%
D15*
%TO.P,C4,1*%
%TO.N,+3.3V*%
X66319400Y-53139400D03*
%TO.P,C4,2*%
%TO.N,GND*%
X66319400Y-54099400D03*
%TD*%
D16*
%TO.P,M3,~*%
%TO.N,N/C*%
X73660000Y-66040000D03*
%TD*%
D17*
%TO.P,R4,1*%
%TO.N,+3.3V*%
X58775600Y-62255400D03*
%TO.P,R4,2*%
%TO.N,/SCL_3V3*%
X57755600Y-62255400D03*
%TD*%
D12*
%TO.P,R7,1*%
%TO.N,Net-(JP2-A)*%
X61175000Y-60325000D03*
%TO.P,R7,2*%
%TO.N,GND*%
X61175000Y-59305000D03*
%TD*%
D13*
%TO.P,J1,*%
%TO.N,*%
X52987000Y-62340000D03*
X52987000Y-57040000D03*
D14*
%TO.P,J1,1,Pin_1*%
%TO.N,GND*%
X55312000Y-58190000D03*
%TO.P,J1,2,Pin_2*%
%TO.N,VCC*%
X55312000Y-59190000D03*
%TO.P,J1,3,Pin_3*%
%TO.N,/SDA*%
X55312000Y-60190000D03*
%TO.P,J1,4,Pin_4*%
%TO.N,/SCL*%
X55312000Y-61190000D03*
%TD*%
D15*
%TO.P,C3,1*%
%TO.N,VCC*%
X60579000Y-53114000D03*
%TO.P,C3,2*%
%TO.N,GND*%
X60579000Y-54074000D03*
%TD*%
D18*
%TO.P,R1,1*%
%TO.N,Net-(U1-REXT)*%
X65775000Y-58105000D03*
%TO.P,R1,2*%
%TO.N,GND*%
X65775000Y-59125000D03*
%TD*%
D16*
%TO.P,M2,~*%
%TO.N,N/C*%
X73660000Y-53340000D03*
%TD*%
D12*
%TO.P,R3,1*%
%TO.N,VCC*%
X70408800Y-66806000D03*
%TO.P,R3,2*%
%TO.N,/SDA*%
X70408800Y-65786000D03*
%TD*%
D19*
%TO.P,U2,1,VIN*%
%TO.N,VCC*%
X62362500Y-53136000D03*
%TO.P,U2,2,GND*%
%TO.N,GND*%
X62362500Y-54086000D03*
%TO.P,U2,3,EN*%
%TO.N,VCC*%
X62362500Y-55036000D03*
%TO.P,U2,4,NC*%
%TO.N,unconnected-(U2-NC-Pad4)*%
X64637500Y-55036000D03*
%TO.P,U2,5,VOUT*%
%TO.N,+3.3V*%
X64637500Y-53136000D03*
%TD*%
D20*
%TO.P,C2,1*%
%TO.N,+3.3V*%
X63925000Y-62775000D03*
%TO.P,C2,2*%
%TO.N,GND*%
X62965000Y-62775000D03*
%TD*%
D16*
%TO.P,M1,~*%
%TO.N,N/C*%
X53340000Y-53340000D03*
%TD*%
%TO.P,M4,~*%
%TO.N,N/C*%
X53340000Y-66040000D03*
%TD*%
D21*
%TO.P,R6,1*%
%TO.N,Net-(JP1-A)*%
X65750000Y-60300000D03*
%TO.P,R6,2*%
%TO.N,GND*%
X66770000Y-60300000D03*
%TD*%
D22*
%TO.P,Q1,1,G*%
%TO.N,+3.3V*%
X68590200Y-63889600D03*
%TO.P,Q1,2,S*%
%TO.N,/SDA_3V3*%
X66690200Y-63889600D03*
%TO.P,Q1,3,D*%
%TO.N,/SDA*%
X67640200Y-65764600D03*
%TD*%
%TO.P,Q2,1,G*%
%TO.N,+3.3V*%
X59213600Y-63936400D03*
%TO.P,Q2,2,S*%
%TO.N,/SCL_3V3*%
X57313600Y-63936400D03*
%TO.P,Q2,3,D*%
%TO.N,/SCL*%
X58263600Y-65811400D03*
%TD*%
D20*
%TO.P,C1,1*%
%TO.N,+3.3V*%
X63980000Y-57400000D03*
%TO.P,C1,2*%
%TO.N,GND*%
X63020000Y-57400000D03*
%TD*%
D17*
%TO.P,R5,1*%
%TO.N,+3.3V*%
X68152200Y-62208600D03*
%TO.P,R5,2*%
%TO.N,/SDA_3V3*%
X67132200Y-62208600D03*
%TD*%
D23*
%TO.N,GND*%
X66776600Y-59232800D03*
X61405600Y-62585600D03*
X58775600Y-58190000D03*
%TO.N,+3.3V*%
X60401200Y-63931800D03*
X65532000Y-64897000D03*
X67640200Y-55727600D03*
%TO.N,VCC*%
X67767200Y-67691000D03*
X60833000Y-67691000D03*
X68935600Y-60071000D03*
X59182000Y-53136800D03*
X60401200Y-55143400D03*
X56972200Y-59207400D03*
%TO.N,/SDA*%
X70312000Y-59169200D03*
X53888000Y-59512200D03*
X70307200Y-64630200D03*
%TO.N,/SCL*%
X65405000Y-57099200D03*
X59969400Y-59359800D03*
%TO.N,Net-(JP1-A)*%
X65534467Y-61431534D03*
%TO.N,Net-(JP2-A)*%
X65505700Y-65910000D03*
%TD*%
D24*
%TO.N,GND*%
X63020000Y-57909400D02*
X63250000Y-58139400D01*
X63250000Y-58139400D02*
X63250000Y-58485800D01*
X63020000Y-57400000D02*
X63020000Y-57909400D01*
X63020000Y-57909400D02*
X62750000Y-58179400D01*
X62750000Y-58179400D02*
X62750000Y-58485800D01*
%TO.N,/SDA*%
X69699800Y-65786000D02*
X70307200Y-65178600D01*
X70307200Y-65178600D02*
X70307200Y-64630200D01*
%TO.N,/SCL*%
X65405000Y-57099200D02*
X69316600Y-57099200D01*
X69316600Y-57099200D02*
X70297400Y-58080000D01*
X70297400Y-58080000D02*
X71716000Y-58080000D01*
%TO.N,GND*%
X66776600Y-59232800D02*
X66668800Y-59125000D01*
X66668800Y-59125000D02*
X65775000Y-59125000D01*
X66770000Y-59239400D02*
X66770000Y-60300000D01*
X66776600Y-59232800D02*
X66770000Y-59239400D01*
%TO.N,+3.3V*%
X63980000Y-57400000D02*
X63980000Y-56797000D01*
X63980000Y-56797000D02*
X64719200Y-56057800D01*
X64719200Y-56057800D02*
X67310000Y-56057800D01*
X67310000Y-56057800D02*
X67640200Y-55727600D01*
%TO.N,GND*%
X61595000Y-62775000D02*
X61405600Y-62585600D01*
X58775600Y-58190000D02*
X60653800Y-58190000D01*
X62965000Y-62775000D02*
X61595000Y-62775000D01*
X57023000Y-58190000D02*
X58775600Y-58190000D01*
%TO.N,/SDA_3V3*%
X62750000Y-61635800D02*
X61097000Y-61635800D01*
X61097000Y-61635800D02*
X60680600Y-62052200D01*
X60680600Y-62052200D02*
X60680600Y-63144400D01*
X60680600Y-63144400D02*
X61315600Y-63779400D01*
X61315600Y-63779400D02*
X66580000Y-63779400D01*
X66580000Y-63779400D02*
X66690200Y-63889600D01*
%TO.N,+3.3V*%
X60401200Y-63931800D02*
X60396600Y-63936400D01*
X60396600Y-63936400D02*
X59213600Y-63936400D01*
%TO.N,/SCL_3V3*%
X57755600Y-62255400D02*
X58974800Y-61036200D01*
X61899800Y-61036200D02*
X62125200Y-60810800D01*
X58974800Y-61036200D02*
X61899800Y-61036200D01*
X62125200Y-60810800D02*
X62450000Y-60810800D01*
%TO.N,/SCL*%
X59969400Y-59359800D02*
X59023404Y-59359800D01*
X59023404Y-59359800D02*
X57193204Y-61190000D01*
X57193204Y-61190000D02*
X55312000Y-61190000D01*
%TO.N,GND*%
X64550000Y-59810800D02*
X64954000Y-59810800D01*
X64954000Y-59810800D02*
X65174600Y-59590200D01*
X65174600Y-59590200D02*
X65174600Y-59310800D01*
X64550000Y-59310800D02*
X65174600Y-59310800D01*
X65174600Y-59310800D02*
X65360400Y-59125000D01*
X65360400Y-59125000D02*
X65775000Y-59125000D01*
X61175000Y-59305000D02*
X61747400Y-59305000D01*
X62450000Y-59810800D02*
X62096800Y-59810800D01*
X61747400Y-59305000D02*
X62444200Y-59305000D01*
X61747400Y-59461400D02*
X61747400Y-59305000D01*
X62096800Y-59810800D02*
X61747400Y-59461400D01*
%TO.N,+3.3V*%
X68152200Y-62208600D02*
X68152200Y-61802200D01*
X67640200Y-53797200D02*
X66982400Y-53139400D01*
X63980000Y-57736800D02*
X63750000Y-57966800D01*
X65188000Y-62775000D02*
X63925000Y-62775000D01*
X63980000Y-57400000D02*
X63980000Y-57736800D01*
X65532000Y-64897000D02*
X65587100Y-64952100D01*
X67913600Y-61563600D02*
X66427000Y-61563600D01*
X63750000Y-62022800D02*
X63925000Y-62197800D01*
X68099500Y-63889600D02*
X68590200Y-63889600D01*
X59213600Y-62998200D02*
X59213600Y-63936400D01*
X58775600Y-62255400D02*
X58775600Y-62560200D01*
X65587100Y-64952100D02*
X67037000Y-64952100D01*
X63750000Y-61635800D02*
X63750000Y-62022800D01*
X66982400Y-53139400D02*
X66319400Y-53139400D01*
X67037000Y-64952100D02*
X68099500Y-63889600D01*
X66427000Y-61563600D02*
X65201800Y-62788800D01*
X63750000Y-57966800D02*
X63750000Y-58485800D01*
X68152200Y-61802200D02*
X67913600Y-61563600D01*
X58775600Y-62560200D02*
X59213600Y-62998200D01*
X67640200Y-55727600D02*
X67640200Y-53797200D01*
X68152200Y-62462600D02*
X68590200Y-62900600D01*
X66316000Y-53136000D02*
X66319400Y-53139400D01*
X68590200Y-62900600D02*
X68590200Y-63889600D01*
X65201800Y-62788800D02*
X65188000Y-62775000D01*
X63925000Y-62197800D02*
X63925000Y-62775000D01*
X64637500Y-53136000D02*
X66316000Y-53136000D01*
X68152200Y-62208600D02*
X68152200Y-62462600D01*
%TO.N,GND*%
X61737000Y-58485800D02*
X62750000Y-58485800D01*
X62350500Y-54074000D02*
X62362500Y-54086000D01*
X63250000Y-61895800D02*
X62965000Y-62180800D01*
X61441200Y-58190000D02*
X61737000Y-58485800D01*
X62965000Y-62180800D02*
X62965000Y-62775000D01*
X60653800Y-58190000D02*
X61441200Y-58190000D01*
X55312000Y-58190000D02*
X57023000Y-58190000D01*
X60579000Y-54074000D02*
X59413200Y-54074000D01*
X66770000Y-60300000D02*
X67550000Y-61080000D01*
X61175000Y-58711200D02*
X61175000Y-59305000D01*
X63250000Y-61635800D02*
X63250000Y-61895800D01*
X60579000Y-54074000D02*
X62350500Y-54074000D01*
X59413200Y-54074000D02*
X57023000Y-56464200D01*
X60653800Y-58190000D02*
X61175000Y-58711200D01*
X62444200Y-59305000D02*
X62450000Y-59310800D01*
X57023000Y-56464200D02*
X57023000Y-58190000D01*
X66306000Y-54086000D02*
X66319400Y-54099400D01*
X67550000Y-61080000D02*
X71716000Y-61080000D01*
X62362500Y-54086000D02*
X66306000Y-54086000D01*
%TO.N,VCC*%
X60508600Y-55036000D02*
X62362500Y-55036000D01*
X56954800Y-59190000D02*
X56972200Y-59207400D01*
X67767200Y-67691000D02*
X69850000Y-67691000D01*
X70408800Y-67132200D02*
X70408800Y-66806000D01*
X69850000Y-67691000D02*
X70408800Y-67132200D01*
X60401200Y-55143400D02*
X60508600Y-55036000D01*
X69470400Y-60071000D02*
X69479400Y-60080000D01*
X59182000Y-53136800D02*
X60556200Y-53136800D01*
X60833000Y-66831400D02*
X60833000Y-67691000D01*
X62340500Y-53114000D02*
X62362500Y-53136000D01*
X60556200Y-53136800D02*
X60579000Y-53114000D01*
X60579000Y-53114000D02*
X62340500Y-53114000D01*
X55312000Y-59190000D02*
X56954800Y-59190000D01*
X69479400Y-60080000D02*
X71716000Y-60080000D01*
X68935600Y-60071000D02*
X69470400Y-60071000D01*
%TO.N,/SDA*%
X71716000Y-59080000D02*
X70590900Y-59080000D01*
X53888000Y-59512200D02*
X54565800Y-60190000D01*
X70590900Y-59080000D02*
X70501700Y-59169200D01*
X67661600Y-65786000D02*
X67640200Y-65764600D01*
X69699800Y-65786000D02*
X67661600Y-65786000D01*
X70408800Y-65786000D02*
X69699800Y-65786000D01*
X70501700Y-59169200D02*
X70312000Y-59169200D01*
X54565800Y-60190000D02*
X55312000Y-60190000D01*
%TO.N,/SCL*%
X56437100Y-62656900D02*
X56212000Y-62882000D01*
X58263600Y-65811400D02*
X60833000Y-65811400D01*
X56212000Y-64884500D02*
X57138900Y-65811400D01*
X56437100Y-61190000D02*
X56437100Y-62656900D01*
X57138900Y-65811400D02*
X58263600Y-65811400D01*
X55874600Y-61190000D02*
X55312000Y-61190000D01*
X56212000Y-62882000D02*
X56212000Y-64884500D01*
X55874600Y-61190000D02*
X56437100Y-61190000D01*
%TO.N,Net-(JP1-A)*%
X65739200Y-60310800D02*
X65750000Y-60300000D01*
X64550000Y-60310800D02*
X65739200Y-60310800D01*
X65750000Y-60300000D02*
X65750000Y-61216001D01*
X65750000Y-61216001D02*
X65534467Y-61431534D01*
%TO.N,Net-(JP2-A)*%
X57092600Y-62692100D02*
X57092600Y-61927000D01*
X57618600Y-65043900D02*
X57008000Y-65043900D01*
X56662100Y-63122600D02*
X57092600Y-62692100D01*
X64776200Y-65180500D02*
X59045200Y-65180500D01*
X62450000Y-60310800D02*
X61189200Y-60310800D01*
X57008000Y-65043900D02*
X56662100Y-64698000D01*
X57958000Y-64704500D02*
X57618600Y-65043900D01*
X57092600Y-61927000D02*
X58694600Y-60325000D01*
X59045200Y-65180500D02*
X58569200Y-64704500D01*
X58569200Y-64704500D02*
X57958000Y-64704500D01*
X65505700Y-65910000D02*
X64776200Y-65180500D01*
X58694600Y-60325000D02*
X61175000Y-60325000D01*
X56662100Y-64698000D02*
X56662100Y-63122600D01*
X61189200Y-60310800D02*
X61175000Y-60325000D01*
%TO.N,/SDA_3V3*%
X66690200Y-63103800D02*
X66690200Y-63889600D01*
X67132200Y-62661800D02*
X66690200Y-63103800D01*
X67132200Y-62208600D02*
X67132200Y-62661800D01*
%TO.N,/SCL_3V3*%
X57313600Y-63107800D02*
X57313600Y-63936400D01*
X57755600Y-62255400D02*
X57755600Y-62665800D01*
X57755600Y-62665800D02*
X57313600Y-63107800D01*
%TO.N,Net-(U1-REXT)*%
X64348600Y-58485800D02*
X64729400Y-58105000D01*
X64729400Y-58105000D02*
X65775000Y-58105000D01*
X64250000Y-58485800D02*
X64348600Y-58485800D01*
%TD*%
M02*
