%TF.GenerationSoftware,KiCad,Pcbnew,8.0.6-8.0.6-0~ubuntu22.04.1*%
%TF.CreationDate,2025-01-20T13:57:26-08:00*%
%TF.ProjectId,uv_abc_sensor,75765f61-6263-45f7-9365-6e736f722e6b,rev?*%
%TF.SameCoordinates,Original*%
%TF.FileFunction,Copper,L2,Bot*%
%TF.FilePolarity,Positive*%
%FSLAX46Y46*%
G04 Gerber Fmt 4.6, Leading zero omitted, Abs format (unit mm)*
G04 Created by KiCad (PCBNEW 8.0.6-8.0.6-0~ubuntu22.04.1) date 2025-01-20 13:57:26*
%MOMM*%
%LPD*%
G01*
G04 APERTURE LIST*
G04 Aperture macros list*
%AMFreePoly0*
4,1,6,1.000000,0.000000,0.500000,-0.750000,-0.500000,-0.750000,-0.500000,0.750000,0.500000,0.750000,1.000000,0.000000,1.000000,0.000000,$1*%
%AMFreePoly1*
4,1,6,0.500000,-0.750000,-0.650000,-0.750000,-0.150000,0.000000,-0.650000,0.750000,0.500000,0.750000,0.500000,-0.750000,0.500000,-0.750000,$1*%
G04 Aperture macros list end*
%TA.AperFunction,ComponentPad*%
%ADD10C,3.570000*%
%TD*%
%TA.AperFunction,SMDPad,CuDef*%
%ADD11FreePoly0,180.000000*%
%TD*%
%TA.AperFunction,SMDPad,CuDef*%
%ADD12FreePoly1,180.000000*%
%TD*%
%TA.AperFunction,ViaPad*%
%ADD13C,0.800000*%
%TD*%
%TA.AperFunction,Conductor*%
%ADD14C,0.250000*%
%TD*%
G04 APERTURE END LIST*
D10*
%TO.P,M3,~*%
%TO.N,N/C*%
X73660000Y-66040000D03*
%TD*%
%TO.P,M2,~*%
%TO.N,N/C*%
X73660000Y-53340000D03*
%TD*%
%TO.P,M1,~*%
%TO.N,N/C*%
X53340000Y-53340000D03*
%TD*%
%TO.P,M4,~*%
%TO.N,N/C*%
X53340000Y-66040000D03*
%TD*%
D11*
%TO.P,JP2,1,A*%
%TO.N,Net-(JP2-A)*%
X64225000Y-66294000D03*
D12*
%TO.P,JP2,2,B*%
%TO.N,+3.3V*%
X62775000Y-66294000D03*
%TD*%
D11*
%TO.P,JP1,1,A*%
%TO.N,Net-(JP1-A)*%
X64225000Y-63500000D03*
D12*
%TO.P,JP1,2,B*%
%TO.N,+3.3V*%
X62775000Y-63500000D03*
%TD*%
D13*
%TO.N,GND*%
X66776600Y-59232800D03*
X61405600Y-62585600D03*
X58775600Y-58190000D03*
%TO.N,+3.3V*%
X60401200Y-63931800D03*
X65532000Y-64897000D03*
X67640200Y-55727600D03*
%TO.N,VCC*%
X67767200Y-67691000D03*
X60833000Y-67691000D03*
X68935600Y-60071000D03*
X59182000Y-53136800D03*
X60401200Y-55143400D03*
X56972200Y-59207400D03*
%TO.N,/SDA*%
X70312000Y-59169200D03*
X53888000Y-59512200D03*
X70307200Y-64630200D03*
%TO.N,/SCL*%
X65405000Y-57099200D03*
X59969400Y-59359800D03*
%TO.N,Net-(JP1-A)*%
X65534467Y-61431534D03*
%TO.N,Net-(JP2-A)*%
X65505700Y-65910000D03*
%TD*%
D14*
%TO.N,/SDA*%
X70307200Y-64630200D02*
X70307200Y-59174000D01*
X70307200Y-59174000D02*
X70312000Y-59169200D01*
%TO.N,GND*%
X66776600Y-59232800D02*
X66776600Y-57277000D01*
X65873800Y-56374200D02*
X60591400Y-56374200D01*
X66776600Y-57277000D02*
X65873800Y-56374200D01*
X60591400Y-56374200D02*
X58775600Y-58190000D01*
%TO.N,/SCL*%
X65405000Y-57099200D02*
X65252600Y-57099200D01*
X65252600Y-57099200D02*
X62992000Y-59359800D01*
X62992000Y-59359800D02*
X59969400Y-59359800D01*
%TO.N,GND*%
X61405600Y-62585600D02*
X58775600Y-59955600D01*
X58775600Y-59955600D02*
X58775600Y-58190000D01*
%TO.N,+3.3V*%
X61315600Y-63931800D02*
X61747400Y-63500000D01*
X61747400Y-63500000D02*
X62775000Y-63500000D01*
X60401200Y-63931800D02*
X61315600Y-63931800D01*
X65532000Y-64897000D02*
X62851200Y-64897000D01*
X62775000Y-64820800D02*
X62775000Y-66294000D01*
X65532000Y-64897000D02*
X65532000Y-62585600D01*
X68173600Y-59944000D02*
X68173600Y-56261000D01*
X62775000Y-63500000D02*
X62775000Y-64820800D01*
X62851200Y-64897000D02*
X62775000Y-64820800D01*
X65532000Y-62585600D02*
X68173600Y-59944000D01*
X68173600Y-56261000D02*
X67640200Y-55727600D01*
%TO.N,VCC*%
X56972200Y-54584600D02*
X58420000Y-53136800D01*
X68935600Y-60071000D02*
X67767200Y-61239400D01*
X67767200Y-67691000D02*
X60833000Y-67691000D01*
X58648600Y-67691000D02*
X56972200Y-66014600D01*
X59182000Y-53924200D02*
X59182000Y-53136800D01*
X60833000Y-67691000D02*
X58648600Y-67691000D01*
X67767200Y-61239400D02*
X67767200Y-67691000D01*
X56972200Y-66014600D02*
X56972200Y-59207400D01*
X60401200Y-55143400D02*
X59182000Y-53924200D01*
X58420000Y-53136800D02*
X59182000Y-53136800D01*
X56972200Y-59207400D02*
X56972200Y-54584600D01*
%TO.N,/SDA*%
X65408600Y-52395800D02*
X70312000Y-57299200D01*
X53888000Y-56981200D02*
X58473400Y-52395800D01*
X58473400Y-52395800D02*
X65408600Y-52395800D01*
X53888000Y-59512200D02*
X53888000Y-56981200D01*
X70312000Y-57299200D02*
X70312000Y-59169200D01*
%TO.N,Net-(JP1-A)*%
X64225000Y-62741001D02*
X65534467Y-61431534D01*
X64225000Y-63500000D02*
X64225000Y-62741001D01*
%TO.N,Net-(JP2-A)*%
X64225000Y-66294000D02*
X65121700Y-66294000D01*
X65121700Y-66294000D02*
X65505700Y-65910000D01*
%TD*%
M02*
