%TF.GenerationSoftware,KiCad,Pcbnew,8.0.6-8.0.6-0~ubuntu22.04.1*%
%TF.CreationDate,2025-01-20T13:57:26-08:00*%
%TF.ProjectId,uv_abc_sensor,75765f61-6263-45f7-9365-6e736f722e6b,rev?*%
%TF.SameCoordinates,Original*%
%TF.FileFunction,Legend,Bot*%
%TF.FilePolarity,Positive*%
%FSLAX46Y46*%
G04 Gerber Fmt 4.6, Leading zero omitted, Abs format (unit mm)*
G04 Created by KiCad (PCBNEW 8.0.6-8.0.6-0~ubuntu22.04.1) date 2025-01-20 13:57:26*
%MOMM*%
%LPD*%
G01*
G04 APERTURE LIST*
%ADD10C,0.150000*%
%ADD11C,0.120000*%
G04 APERTURE END LIST*
D10*
X66499999Y-52412272D02*
X66023809Y-52412272D01*
X66595237Y-52697987D02*
X66261904Y-51697987D01*
X66261904Y-51697987D02*
X65928571Y-52697987D01*
X65642856Y-52650368D02*
X65499999Y-52697987D01*
X65499999Y-52697987D02*
X65261904Y-52697987D01*
X65261904Y-52697987D02*
X65166666Y-52650368D01*
X65166666Y-52650368D02*
X65119047Y-52602748D01*
X65119047Y-52602748D02*
X65071428Y-52507510D01*
X65071428Y-52507510D02*
X65071428Y-52412272D01*
X65071428Y-52412272D02*
X65119047Y-52317034D01*
X65119047Y-52317034D02*
X65166666Y-52269415D01*
X65166666Y-52269415D02*
X65261904Y-52221796D01*
X65261904Y-52221796D02*
X65452380Y-52174177D01*
X65452380Y-52174177D02*
X65547618Y-52126558D01*
X65547618Y-52126558D02*
X65595237Y-52078939D01*
X65595237Y-52078939D02*
X65642856Y-51983701D01*
X65642856Y-51983701D02*
X65642856Y-51888463D01*
X65642856Y-51888463D02*
X65595237Y-51793225D01*
X65595237Y-51793225D02*
X65547618Y-51745606D01*
X65547618Y-51745606D02*
X65452380Y-51697987D01*
X65452380Y-51697987D02*
X65214285Y-51697987D01*
X65214285Y-51697987D02*
X65071428Y-51745606D01*
X64738094Y-51697987D02*
X64071428Y-51697987D01*
X64071428Y-51697987D02*
X64499999Y-52697987D01*
X63785713Y-51697987D02*
X63166666Y-51697987D01*
X63166666Y-51697987D02*
X63499999Y-52078939D01*
X63499999Y-52078939D02*
X63357142Y-52078939D01*
X63357142Y-52078939D02*
X63261904Y-52126558D01*
X63261904Y-52126558D02*
X63214285Y-52174177D01*
X63214285Y-52174177D02*
X63166666Y-52269415D01*
X63166666Y-52269415D02*
X63166666Y-52507510D01*
X63166666Y-52507510D02*
X63214285Y-52602748D01*
X63214285Y-52602748D02*
X63261904Y-52650368D01*
X63261904Y-52650368D02*
X63357142Y-52697987D01*
X63357142Y-52697987D02*
X63642856Y-52697987D01*
X63642856Y-52697987D02*
X63738094Y-52650368D01*
X63738094Y-52650368D02*
X63785713Y-52602748D01*
X62833332Y-51697987D02*
X62214285Y-51697987D01*
X62214285Y-51697987D02*
X62547618Y-52078939D01*
X62547618Y-52078939D02*
X62404761Y-52078939D01*
X62404761Y-52078939D02*
X62309523Y-52126558D01*
X62309523Y-52126558D02*
X62261904Y-52174177D01*
X62261904Y-52174177D02*
X62214285Y-52269415D01*
X62214285Y-52269415D02*
X62214285Y-52507510D01*
X62214285Y-52507510D02*
X62261904Y-52602748D01*
X62261904Y-52602748D02*
X62309523Y-52650368D01*
X62309523Y-52650368D02*
X62404761Y-52697987D01*
X62404761Y-52697987D02*
X62690475Y-52697987D01*
X62690475Y-52697987D02*
X62785713Y-52650368D01*
X62785713Y-52650368D02*
X62833332Y-52602748D01*
X61261904Y-52697987D02*
X61833332Y-52697987D01*
X61547618Y-52697987D02*
X61547618Y-51697987D01*
X61547618Y-51697987D02*
X61642856Y-51840844D01*
X61642856Y-51840844D02*
X61738094Y-51936082D01*
X61738094Y-51936082D02*
X61833332Y-51983701D01*
X69309524Y-53307931D02*
X69309524Y-54117454D01*
X69309524Y-54117454D02*
X69261905Y-54212692D01*
X69261905Y-54212692D02*
X69214286Y-54260312D01*
X69214286Y-54260312D02*
X69119048Y-54307931D01*
X69119048Y-54307931D02*
X68928572Y-54307931D01*
X68928572Y-54307931D02*
X68833334Y-54260312D01*
X68833334Y-54260312D02*
X68785715Y-54212692D01*
X68785715Y-54212692D02*
X68738096Y-54117454D01*
X68738096Y-54117454D02*
X68738096Y-53307931D01*
X68404762Y-53307931D02*
X68071429Y-54307931D01*
X68071429Y-54307931D02*
X67738096Y-53307931D01*
X66690476Y-54022216D02*
X66214286Y-54022216D01*
X66785714Y-54307931D02*
X66452381Y-53307931D01*
X66452381Y-53307931D02*
X66119048Y-54307931D01*
X65452381Y-53784121D02*
X65309524Y-53831740D01*
X65309524Y-53831740D02*
X65261905Y-53879359D01*
X65261905Y-53879359D02*
X65214286Y-53974597D01*
X65214286Y-53974597D02*
X65214286Y-54117454D01*
X65214286Y-54117454D02*
X65261905Y-54212692D01*
X65261905Y-54212692D02*
X65309524Y-54260312D01*
X65309524Y-54260312D02*
X65404762Y-54307931D01*
X65404762Y-54307931D02*
X65785714Y-54307931D01*
X65785714Y-54307931D02*
X65785714Y-53307931D01*
X65785714Y-53307931D02*
X65452381Y-53307931D01*
X65452381Y-53307931D02*
X65357143Y-53355550D01*
X65357143Y-53355550D02*
X65309524Y-53403169D01*
X65309524Y-53403169D02*
X65261905Y-53498407D01*
X65261905Y-53498407D02*
X65261905Y-53593645D01*
X65261905Y-53593645D02*
X65309524Y-53688883D01*
X65309524Y-53688883D02*
X65357143Y-53736502D01*
X65357143Y-53736502D02*
X65452381Y-53784121D01*
X65452381Y-53784121D02*
X65785714Y-53784121D01*
X64214286Y-54212692D02*
X64261905Y-54260312D01*
X64261905Y-54260312D02*
X64404762Y-54307931D01*
X64404762Y-54307931D02*
X64500000Y-54307931D01*
X64500000Y-54307931D02*
X64642857Y-54260312D01*
X64642857Y-54260312D02*
X64738095Y-54165073D01*
X64738095Y-54165073D02*
X64785714Y-54069835D01*
X64785714Y-54069835D02*
X64833333Y-53879359D01*
X64833333Y-53879359D02*
X64833333Y-53736502D01*
X64833333Y-53736502D02*
X64785714Y-53546026D01*
X64785714Y-53546026D02*
X64738095Y-53450788D01*
X64738095Y-53450788D02*
X64642857Y-53355550D01*
X64642857Y-53355550D02*
X64500000Y-53307931D01*
X64500000Y-53307931D02*
X64404762Y-53307931D01*
X64404762Y-53307931D02*
X64261905Y-53355550D01*
X64261905Y-53355550D02*
X64214286Y-53403169D01*
X63071428Y-54260312D02*
X62928571Y-54307931D01*
X62928571Y-54307931D02*
X62690476Y-54307931D01*
X62690476Y-54307931D02*
X62595238Y-54260312D01*
X62595238Y-54260312D02*
X62547619Y-54212692D01*
X62547619Y-54212692D02*
X62500000Y-54117454D01*
X62500000Y-54117454D02*
X62500000Y-54022216D01*
X62500000Y-54022216D02*
X62547619Y-53926978D01*
X62547619Y-53926978D02*
X62595238Y-53879359D01*
X62595238Y-53879359D02*
X62690476Y-53831740D01*
X62690476Y-53831740D02*
X62880952Y-53784121D01*
X62880952Y-53784121D02*
X62976190Y-53736502D01*
X62976190Y-53736502D02*
X63023809Y-53688883D01*
X63023809Y-53688883D02*
X63071428Y-53593645D01*
X63071428Y-53593645D02*
X63071428Y-53498407D01*
X63071428Y-53498407D02*
X63023809Y-53403169D01*
X63023809Y-53403169D02*
X62976190Y-53355550D01*
X62976190Y-53355550D02*
X62880952Y-53307931D01*
X62880952Y-53307931D02*
X62642857Y-53307931D01*
X62642857Y-53307931D02*
X62500000Y-53355550D01*
X61690476Y-54260312D02*
X61785714Y-54307931D01*
X61785714Y-54307931D02*
X61976190Y-54307931D01*
X61976190Y-54307931D02*
X62071428Y-54260312D01*
X62071428Y-54260312D02*
X62119047Y-54165073D01*
X62119047Y-54165073D02*
X62119047Y-53784121D01*
X62119047Y-53784121D02*
X62071428Y-53688883D01*
X62071428Y-53688883D02*
X61976190Y-53641264D01*
X61976190Y-53641264D02*
X61785714Y-53641264D01*
X61785714Y-53641264D02*
X61690476Y-53688883D01*
X61690476Y-53688883D02*
X61642857Y-53784121D01*
X61642857Y-53784121D02*
X61642857Y-53879359D01*
X61642857Y-53879359D02*
X62119047Y-53974597D01*
X61214285Y-53641264D02*
X61214285Y-54307931D01*
X61214285Y-53736502D02*
X61166666Y-53688883D01*
X61166666Y-53688883D02*
X61071428Y-53641264D01*
X61071428Y-53641264D02*
X60928571Y-53641264D01*
X60928571Y-53641264D02*
X60833333Y-53688883D01*
X60833333Y-53688883D02*
X60785714Y-53784121D01*
X60785714Y-53784121D02*
X60785714Y-54307931D01*
X60357142Y-54260312D02*
X60261904Y-54307931D01*
X60261904Y-54307931D02*
X60071428Y-54307931D01*
X60071428Y-54307931D02*
X59976190Y-54260312D01*
X59976190Y-54260312D02*
X59928571Y-54165073D01*
X59928571Y-54165073D02*
X59928571Y-54117454D01*
X59928571Y-54117454D02*
X59976190Y-54022216D01*
X59976190Y-54022216D02*
X60071428Y-53974597D01*
X60071428Y-53974597D02*
X60214285Y-53974597D01*
X60214285Y-53974597D02*
X60309523Y-53926978D01*
X60309523Y-53926978D02*
X60357142Y-53831740D01*
X60357142Y-53831740D02*
X60357142Y-53784121D01*
X60357142Y-53784121D02*
X60309523Y-53688883D01*
X60309523Y-53688883D02*
X60214285Y-53641264D01*
X60214285Y-53641264D02*
X60071428Y-53641264D01*
X60071428Y-53641264D02*
X59976190Y-53688883D01*
X59357142Y-54307931D02*
X59452380Y-54260312D01*
X59452380Y-54260312D02*
X59499999Y-54212692D01*
X59499999Y-54212692D02*
X59547618Y-54117454D01*
X59547618Y-54117454D02*
X59547618Y-53831740D01*
X59547618Y-53831740D02*
X59499999Y-53736502D01*
X59499999Y-53736502D02*
X59452380Y-53688883D01*
X59452380Y-53688883D02*
X59357142Y-53641264D01*
X59357142Y-53641264D02*
X59214285Y-53641264D01*
X59214285Y-53641264D02*
X59119047Y-53688883D01*
X59119047Y-53688883D02*
X59071428Y-53736502D01*
X59071428Y-53736502D02*
X59023809Y-53831740D01*
X59023809Y-53831740D02*
X59023809Y-54117454D01*
X59023809Y-54117454D02*
X59071428Y-54212692D01*
X59071428Y-54212692D02*
X59119047Y-54260312D01*
X59119047Y-54260312D02*
X59214285Y-54307931D01*
X59214285Y-54307931D02*
X59357142Y-54307931D01*
X58595237Y-54307931D02*
X58595237Y-53641264D01*
X58595237Y-53831740D02*
X58547618Y-53736502D01*
X58547618Y-53736502D02*
X58499999Y-53688883D01*
X58499999Y-53688883D02*
X58404761Y-53641264D01*
X58404761Y-53641264D02*
X58309523Y-53641264D01*
X66380951Y-54917875D02*
X66047618Y-55917875D01*
X66047618Y-55917875D02*
X65714285Y-54917875D01*
X65190475Y-54917875D02*
X65095237Y-54917875D01*
X65095237Y-54917875D02*
X64999999Y-54965494D01*
X64999999Y-54965494D02*
X64952380Y-55013113D01*
X64952380Y-55013113D02*
X64904761Y-55108351D01*
X64904761Y-55108351D02*
X64857142Y-55298827D01*
X64857142Y-55298827D02*
X64857142Y-55536922D01*
X64857142Y-55536922D02*
X64904761Y-55727398D01*
X64904761Y-55727398D02*
X64952380Y-55822636D01*
X64952380Y-55822636D02*
X64999999Y-55870256D01*
X64999999Y-55870256D02*
X65095237Y-55917875D01*
X65095237Y-55917875D02*
X65190475Y-55917875D01*
X65190475Y-55917875D02*
X65285713Y-55870256D01*
X65285713Y-55870256D02*
X65333332Y-55822636D01*
X65333332Y-55822636D02*
X65380951Y-55727398D01*
X65380951Y-55727398D02*
X65428570Y-55536922D01*
X65428570Y-55536922D02*
X65428570Y-55298827D01*
X65428570Y-55298827D02*
X65380951Y-55108351D01*
X65380951Y-55108351D02*
X65333332Y-55013113D01*
X65333332Y-55013113D02*
X65285713Y-54965494D01*
X65285713Y-54965494D02*
X65190475Y-54917875D01*
X64428570Y-55822636D02*
X64380951Y-55870256D01*
X64380951Y-55870256D02*
X64428570Y-55917875D01*
X64428570Y-55917875D02*
X64476189Y-55870256D01*
X64476189Y-55870256D02*
X64428570Y-55822636D01*
X64428570Y-55822636D02*
X64428570Y-55917875D01*
X63428571Y-55917875D02*
X63999999Y-55917875D01*
X63714285Y-55917875D02*
X63714285Y-54917875D01*
X63714285Y-54917875D02*
X63809523Y-55060732D01*
X63809523Y-55060732D02*
X63904761Y-55155970D01*
X63904761Y-55155970D02*
X63999999Y-55203589D01*
X61666666Y-55917875D02*
X61999999Y-55441684D01*
X62238094Y-55917875D02*
X62238094Y-54917875D01*
X62238094Y-54917875D02*
X61857142Y-54917875D01*
X61857142Y-54917875D02*
X61761904Y-54965494D01*
X61761904Y-54965494D02*
X61714285Y-55013113D01*
X61714285Y-55013113D02*
X61666666Y-55108351D01*
X61666666Y-55108351D02*
X61666666Y-55251208D01*
X61666666Y-55251208D02*
X61714285Y-55346446D01*
X61714285Y-55346446D02*
X61761904Y-55394065D01*
X61761904Y-55394065D02*
X61857142Y-55441684D01*
X61857142Y-55441684D02*
X62238094Y-55441684D01*
X61285713Y-55013113D02*
X61238094Y-54965494D01*
X61238094Y-54965494D02*
X61142856Y-54917875D01*
X61142856Y-54917875D02*
X60904761Y-54917875D01*
X60904761Y-54917875D02*
X60809523Y-54965494D01*
X60809523Y-54965494D02*
X60761904Y-55013113D01*
X60761904Y-55013113D02*
X60714285Y-55108351D01*
X60714285Y-55108351D02*
X60714285Y-55203589D01*
X60714285Y-55203589D02*
X60761904Y-55346446D01*
X60761904Y-55346446D02*
X61333332Y-55917875D01*
X61333332Y-55917875D02*
X60714285Y-55917875D01*
X69738094Y-56861152D02*
X69547618Y-57527819D01*
X69547618Y-57527819D02*
X69357142Y-57051628D01*
X69357142Y-57051628D02*
X69166666Y-57527819D01*
X69166666Y-57527819D02*
X68976190Y-56861152D01*
X68690475Y-56861152D02*
X68499999Y-57527819D01*
X68499999Y-57527819D02*
X68309523Y-57051628D01*
X68309523Y-57051628D02*
X68119047Y-57527819D01*
X68119047Y-57527819D02*
X67928571Y-56861152D01*
X67642856Y-56861152D02*
X67452380Y-57527819D01*
X67452380Y-57527819D02*
X67261904Y-57051628D01*
X67261904Y-57051628D02*
X67071428Y-57527819D01*
X67071428Y-57527819D02*
X66880952Y-56861152D01*
X66499999Y-57432580D02*
X66452380Y-57480200D01*
X66452380Y-57480200D02*
X66499999Y-57527819D01*
X66499999Y-57527819D02*
X66547618Y-57480200D01*
X66547618Y-57480200D02*
X66499999Y-57432580D01*
X66499999Y-57432580D02*
X66499999Y-57527819D01*
X66023809Y-57527819D02*
X66023809Y-56861152D01*
X66023809Y-56527819D02*
X66071428Y-56575438D01*
X66071428Y-56575438D02*
X66023809Y-56623057D01*
X66023809Y-56623057D02*
X65976190Y-56575438D01*
X65976190Y-56575438D02*
X66023809Y-56527819D01*
X66023809Y-56527819D02*
X66023809Y-56623057D01*
X65404762Y-57527819D02*
X65500000Y-57480200D01*
X65500000Y-57480200D02*
X65547619Y-57432580D01*
X65547619Y-57432580D02*
X65595238Y-57337342D01*
X65595238Y-57337342D02*
X65595238Y-57051628D01*
X65595238Y-57051628D02*
X65547619Y-56956390D01*
X65547619Y-56956390D02*
X65500000Y-56908771D01*
X65500000Y-56908771D02*
X65404762Y-56861152D01*
X65404762Y-56861152D02*
X65261905Y-56861152D01*
X65261905Y-56861152D02*
X65166667Y-56908771D01*
X65166667Y-56908771D02*
X65119048Y-56956390D01*
X65119048Y-56956390D02*
X65071429Y-57051628D01*
X65071429Y-57051628D02*
X65071429Y-57337342D01*
X65071429Y-57337342D02*
X65119048Y-57432580D01*
X65119048Y-57432580D02*
X65166667Y-57480200D01*
X65166667Y-57480200D02*
X65261905Y-57527819D01*
X65261905Y-57527819D02*
X65404762Y-57527819D01*
X64642857Y-57527819D02*
X64642857Y-56861152D01*
X64642857Y-57051628D02*
X64595238Y-56956390D01*
X64595238Y-56956390D02*
X64547619Y-56908771D01*
X64547619Y-56908771D02*
X64452381Y-56861152D01*
X64452381Y-56861152D02*
X64357143Y-56861152D01*
X63880952Y-57527819D02*
X63976190Y-57480200D01*
X63976190Y-57480200D02*
X64023809Y-57432580D01*
X64023809Y-57432580D02*
X64071428Y-57337342D01*
X64071428Y-57337342D02*
X64071428Y-57051628D01*
X64071428Y-57051628D02*
X64023809Y-56956390D01*
X64023809Y-56956390D02*
X63976190Y-56908771D01*
X63976190Y-56908771D02*
X63880952Y-56861152D01*
X63880952Y-56861152D02*
X63738095Y-56861152D01*
X63738095Y-56861152D02*
X63642857Y-56908771D01*
X63642857Y-56908771D02*
X63595238Y-56956390D01*
X63595238Y-56956390D02*
X63547619Y-57051628D01*
X63547619Y-57051628D02*
X63547619Y-57337342D01*
X63547619Y-57337342D02*
X63595238Y-57432580D01*
X63595238Y-57432580D02*
X63642857Y-57480200D01*
X63642857Y-57480200D02*
X63738095Y-57527819D01*
X63738095Y-57527819D02*
X63880952Y-57527819D01*
X62690476Y-57527819D02*
X62690476Y-56527819D01*
X62690476Y-57480200D02*
X62785714Y-57527819D01*
X62785714Y-57527819D02*
X62976190Y-57527819D01*
X62976190Y-57527819D02*
X63071428Y-57480200D01*
X63071428Y-57480200D02*
X63119047Y-57432580D01*
X63119047Y-57432580D02*
X63166666Y-57337342D01*
X63166666Y-57337342D02*
X63166666Y-57051628D01*
X63166666Y-57051628D02*
X63119047Y-56956390D01*
X63119047Y-56956390D02*
X63071428Y-56908771D01*
X63071428Y-56908771D02*
X62976190Y-56861152D01*
X62976190Y-56861152D02*
X62785714Y-56861152D01*
X62785714Y-56861152D02*
X62690476Y-56908771D01*
X61833333Y-57480200D02*
X61928571Y-57527819D01*
X61928571Y-57527819D02*
X62119047Y-57527819D01*
X62119047Y-57527819D02*
X62214285Y-57480200D01*
X62214285Y-57480200D02*
X62261904Y-57384961D01*
X62261904Y-57384961D02*
X62261904Y-57004009D01*
X62261904Y-57004009D02*
X62214285Y-56908771D01*
X62214285Y-56908771D02*
X62119047Y-56861152D01*
X62119047Y-56861152D02*
X61928571Y-56861152D01*
X61928571Y-56861152D02*
X61833333Y-56908771D01*
X61833333Y-56908771D02*
X61785714Y-57004009D01*
X61785714Y-57004009D02*
X61785714Y-57099247D01*
X61785714Y-57099247D02*
X62261904Y-57194485D01*
X61214285Y-57527819D02*
X61309523Y-57480200D01*
X61309523Y-57480200D02*
X61357142Y-57432580D01*
X61357142Y-57432580D02*
X61404761Y-57337342D01*
X61404761Y-57337342D02*
X61404761Y-57051628D01*
X61404761Y-57051628D02*
X61357142Y-56956390D01*
X61357142Y-56956390D02*
X61309523Y-56908771D01*
X61309523Y-56908771D02*
X61214285Y-56861152D01*
X61214285Y-56861152D02*
X61071428Y-56861152D01*
X61071428Y-56861152D02*
X60976190Y-56908771D01*
X60976190Y-56908771D02*
X60928571Y-56956390D01*
X60928571Y-56956390D02*
X60880952Y-57051628D01*
X60880952Y-57051628D02*
X60880952Y-57337342D01*
X60880952Y-57337342D02*
X60928571Y-57432580D01*
X60928571Y-57432580D02*
X60976190Y-57480200D01*
X60976190Y-57480200D02*
X61071428Y-57527819D01*
X61071428Y-57527819D02*
X61214285Y-57527819D01*
X60452380Y-57432580D02*
X60404761Y-57480200D01*
X60404761Y-57480200D02*
X60452380Y-57527819D01*
X60452380Y-57527819D02*
X60499999Y-57480200D01*
X60499999Y-57480200D02*
X60452380Y-57432580D01*
X60452380Y-57432580D02*
X60452380Y-57527819D01*
X59547619Y-57480200D02*
X59642857Y-57527819D01*
X59642857Y-57527819D02*
X59833333Y-57527819D01*
X59833333Y-57527819D02*
X59928571Y-57480200D01*
X59928571Y-57480200D02*
X59976190Y-57432580D01*
X59976190Y-57432580D02*
X60023809Y-57337342D01*
X60023809Y-57337342D02*
X60023809Y-57051628D01*
X60023809Y-57051628D02*
X59976190Y-56956390D01*
X59976190Y-56956390D02*
X59928571Y-56908771D01*
X59928571Y-56908771D02*
X59833333Y-56861152D01*
X59833333Y-56861152D02*
X59642857Y-56861152D01*
X59642857Y-56861152D02*
X59547619Y-56908771D01*
X58976190Y-57527819D02*
X59071428Y-57480200D01*
X59071428Y-57480200D02*
X59119047Y-57432580D01*
X59119047Y-57432580D02*
X59166666Y-57337342D01*
X59166666Y-57337342D02*
X59166666Y-57051628D01*
X59166666Y-57051628D02*
X59119047Y-56956390D01*
X59119047Y-56956390D02*
X59071428Y-56908771D01*
X59071428Y-56908771D02*
X58976190Y-56861152D01*
X58976190Y-56861152D02*
X58833333Y-56861152D01*
X58833333Y-56861152D02*
X58738095Y-56908771D01*
X58738095Y-56908771D02*
X58690476Y-56956390D01*
X58690476Y-56956390D02*
X58642857Y-57051628D01*
X58642857Y-57051628D02*
X58642857Y-57337342D01*
X58642857Y-57337342D02*
X58690476Y-57432580D01*
X58690476Y-57432580D02*
X58738095Y-57480200D01*
X58738095Y-57480200D02*
X58833333Y-57527819D01*
X58833333Y-57527819D02*
X58976190Y-57527819D01*
X58214285Y-57527819D02*
X58214285Y-56861152D01*
X58214285Y-56956390D02*
X58166666Y-56908771D01*
X58166666Y-56908771D02*
X58071428Y-56861152D01*
X58071428Y-56861152D02*
X57928571Y-56861152D01*
X57928571Y-56861152D02*
X57833333Y-56908771D01*
X57833333Y-56908771D02*
X57785714Y-57004009D01*
X57785714Y-57004009D02*
X57785714Y-57527819D01*
X57785714Y-57004009D02*
X57738095Y-56908771D01*
X57738095Y-56908771D02*
X57642857Y-56861152D01*
X57642857Y-56861152D02*
X57500000Y-56861152D01*
X57500000Y-56861152D02*
X57404761Y-56908771D01*
X57404761Y-56908771D02*
X57357142Y-57004009D01*
X57357142Y-57004009D02*
X57357142Y-57527819D01*
X65947895Y-66512839D02*
X65947895Y-66036649D01*
X65662180Y-66608077D02*
X66662180Y-66274744D01*
X66662180Y-66274744D02*
X65662180Y-65941411D01*
X65662180Y-65608077D02*
X66662180Y-65608077D01*
X66662180Y-65608077D02*
X66662180Y-65369982D01*
X66662180Y-65369982D02*
X66614561Y-65227125D01*
X66614561Y-65227125D02*
X66519323Y-65131887D01*
X66519323Y-65131887D02*
X66424085Y-65084268D01*
X66424085Y-65084268D02*
X66233609Y-65036649D01*
X66233609Y-65036649D02*
X66090752Y-65036649D01*
X66090752Y-65036649D02*
X65900276Y-65084268D01*
X65900276Y-65084268D02*
X65805038Y-65131887D01*
X65805038Y-65131887D02*
X65709800Y-65227125D01*
X65709800Y-65227125D02*
X65662180Y-65369982D01*
X65662180Y-65369982D02*
X65662180Y-65608077D01*
X65662180Y-64608077D02*
X66662180Y-64608077D01*
X66662180Y-64608077D02*
X66662180Y-64369982D01*
X66662180Y-64369982D02*
X66614561Y-64227125D01*
X66614561Y-64227125D02*
X66519323Y-64131887D01*
X66519323Y-64131887D02*
X66424085Y-64084268D01*
X66424085Y-64084268D02*
X66233609Y-64036649D01*
X66233609Y-64036649D02*
X66090752Y-64036649D01*
X66090752Y-64036649D02*
X65900276Y-64084268D01*
X65900276Y-64084268D02*
X65805038Y-64131887D01*
X65805038Y-64131887D02*
X65709800Y-64227125D01*
X65709800Y-64227125D02*
X65662180Y-64369982D01*
X65662180Y-64369982D02*
X65662180Y-64608077D01*
X65662180Y-63036649D02*
X66138371Y-63369982D01*
X65662180Y-63608077D02*
X66662180Y-63608077D01*
X66662180Y-63608077D02*
X66662180Y-63227125D01*
X66662180Y-63227125D02*
X66614561Y-63131887D01*
X66614561Y-63131887D02*
X66566942Y-63084268D01*
X66566942Y-63084268D02*
X66471704Y-63036649D01*
X66471704Y-63036649D02*
X66328847Y-63036649D01*
X66328847Y-63036649D02*
X66233609Y-63084268D01*
X66233609Y-63084268D02*
X66185990Y-63131887D01*
X66185990Y-63131887D02*
X66138371Y-63227125D01*
X66138371Y-63227125D02*
X66138371Y-63608077D01*
X61432839Y-66386104D02*
X60956649Y-66386104D01*
X61528077Y-66671819D02*
X61194744Y-65671819D01*
X61194744Y-65671819D02*
X60861411Y-66671819D01*
X60004268Y-66671819D02*
X60575696Y-66671819D01*
X60289982Y-66671819D02*
X60289982Y-65671819D01*
X60289982Y-65671819D02*
X60385220Y-65814676D01*
X60385220Y-65814676D02*
X60480458Y-65909914D01*
X60480458Y-65909914D02*
X60575696Y-65957533D01*
X61432839Y-63592104D02*
X60956649Y-63592104D01*
X61528077Y-63877819D02*
X61194744Y-62877819D01*
X61194744Y-62877819D02*
X60861411Y-63877819D01*
X60337601Y-62877819D02*
X60242363Y-62877819D01*
X60242363Y-62877819D02*
X60147125Y-62925438D01*
X60147125Y-62925438D02*
X60099506Y-62973057D01*
X60099506Y-62973057D02*
X60051887Y-63068295D01*
X60051887Y-63068295D02*
X60004268Y-63258771D01*
X60004268Y-63258771D02*
X60004268Y-63496866D01*
X60004268Y-63496866D02*
X60051887Y-63687342D01*
X60051887Y-63687342D02*
X60099506Y-63782580D01*
X60099506Y-63782580D02*
X60147125Y-63830200D01*
X60147125Y-63830200D02*
X60242363Y-63877819D01*
X60242363Y-63877819D02*
X60337601Y-63877819D01*
X60337601Y-63877819D02*
X60432839Y-63830200D01*
X60432839Y-63830200D02*
X60480458Y-63782580D01*
X60480458Y-63782580D02*
X60528077Y-63687342D01*
X60528077Y-63687342D02*
X60575696Y-63496866D01*
X60575696Y-63496866D02*
X60575696Y-63258771D01*
X60575696Y-63258771D02*
X60528077Y-63068295D01*
X60528077Y-63068295D02*
X60480458Y-62973057D01*
X60480458Y-62973057D02*
X60432839Y-62925438D01*
X60432839Y-62925438D02*
X60337601Y-62877819D01*
%TO.C,M3*%
X76110000Y-66040000D02*
G75*
G02*
X71210000Y-66040000I-2450000J0D01*
G01*
X71210000Y-66040000D02*
G75*
G02*
X76110000Y-66040000I2450000J0D01*
G01*
%TO.C,M2*%
X76110000Y-53340000D02*
G75*
G02*
X71210000Y-53340000I-2450000J0D01*
G01*
X71210000Y-53340000D02*
G75*
G02*
X76110000Y-53340000I2450000J0D01*
G01*
%TO.C,M1*%
X55790000Y-53340000D02*
G75*
G02*
X50890000Y-53340000I-2450000J0D01*
G01*
X50890000Y-53340000D02*
G75*
G02*
X55790000Y-53340000I2450000J0D01*
G01*
%TO.C,M4*%
X55790000Y-66040000D02*
G75*
G02*
X50890000Y-66040000I-2450000J0D01*
G01*
X50890000Y-66040000D02*
G75*
G02*
X55790000Y-66040000I2450000J0D01*
G01*
D11*
%TO.C,JP2*%
X64900000Y-67294000D02*
X64900000Y-65294000D01*
X64900000Y-65294000D02*
X62100000Y-65294000D01*
X62100000Y-67294000D02*
X64900000Y-67294000D01*
X62100000Y-65294000D02*
X62100000Y-67294000D01*
%TO.C,JP1*%
X64900000Y-64500000D02*
X64900000Y-62500000D01*
X64900000Y-62500000D02*
X62100000Y-62500000D01*
X62100000Y-64500000D02*
X64900000Y-64500000D01*
X62100000Y-62500000D02*
X62100000Y-64500000D01*
%TD*%
M02*
