%TF.GenerationSoftware,KiCad,Pcbnew,7.0.8-7.0.8~ubuntu22.04.1*%
%TF.CreationDate,2023-11-20T16:19:22-08:00*%
%TF.ProjectId,uv_abc_sensor,75765f61-6263-45f7-9365-6e736f722e6b,rev?*%
%TF.SameCoordinates,Original*%
%TF.FileFunction,Legend,Bot*%
%TF.FilePolarity,Positive*%
%FSLAX46Y46*%
G04 Gerber Fmt 4.6, Leading zero omitted, Abs format (unit mm)*
G04 Created by KiCad (PCBNEW 7.0.8-7.0.8~ubuntu22.04.1) date 2023-11-20 16:19:22*
%MOMM*%
%LPD*%
G01*
G04 APERTURE LIST*
%ADD10C,0.150000*%
%ADD11C,0.120000*%
G04 APERTURE END LIST*
D10*
X66499999Y-52412104D02*
X66023809Y-52412104D01*
X66595237Y-52697819D02*
X66261904Y-51697819D01*
X66261904Y-51697819D02*
X65928571Y-52697819D01*
X65642856Y-52650200D02*
X65499999Y-52697819D01*
X65499999Y-52697819D02*
X65261904Y-52697819D01*
X65261904Y-52697819D02*
X65166666Y-52650200D01*
X65166666Y-52650200D02*
X65119047Y-52602580D01*
X65119047Y-52602580D02*
X65071428Y-52507342D01*
X65071428Y-52507342D02*
X65071428Y-52412104D01*
X65071428Y-52412104D02*
X65119047Y-52316866D01*
X65119047Y-52316866D02*
X65166666Y-52269247D01*
X65166666Y-52269247D02*
X65261904Y-52221628D01*
X65261904Y-52221628D02*
X65452380Y-52174009D01*
X65452380Y-52174009D02*
X65547618Y-52126390D01*
X65547618Y-52126390D02*
X65595237Y-52078771D01*
X65595237Y-52078771D02*
X65642856Y-51983533D01*
X65642856Y-51983533D02*
X65642856Y-51888295D01*
X65642856Y-51888295D02*
X65595237Y-51793057D01*
X65595237Y-51793057D02*
X65547618Y-51745438D01*
X65547618Y-51745438D02*
X65452380Y-51697819D01*
X65452380Y-51697819D02*
X65214285Y-51697819D01*
X65214285Y-51697819D02*
X65071428Y-51745438D01*
X64738094Y-51697819D02*
X64071428Y-51697819D01*
X64071428Y-51697819D02*
X64499999Y-52697819D01*
X63785713Y-51697819D02*
X63166666Y-51697819D01*
X63166666Y-51697819D02*
X63499999Y-52078771D01*
X63499999Y-52078771D02*
X63357142Y-52078771D01*
X63357142Y-52078771D02*
X63261904Y-52126390D01*
X63261904Y-52126390D02*
X63214285Y-52174009D01*
X63214285Y-52174009D02*
X63166666Y-52269247D01*
X63166666Y-52269247D02*
X63166666Y-52507342D01*
X63166666Y-52507342D02*
X63214285Y-52602580D01*
X63214285Y-52602580D02*
X63261904Y-52650200D01*
X63261904Y-52650200D02*
X63357142Y-52697819D01*
X63357142Y-52697819D02*
X63642856Y-52697819D01*
X63642856Y-52697819D02*
X63738094Y-52650200D01*
X63738094Y-52650200D02*
X63785713Y-52602580D01*
X62833332Y-51697819D02*
X62214285Y-51697819D01*
X62214285Y-51697819D02*
X62547618Y-52078771D01*
X62547618Y-52078771D02*
X62404761Y-52078771D01*
X62404761Y-52078771D02*
X62309523Y-52126390D01*
X62309523Y-52126390D02*
X62261904Y-52174009D01*
X62261904Y-52174009D02*
X62214285Y-52269247D01*
X62214285Y-52269247D02*
X62214285Y-52507342D01*
X62214285Y-52507342D02*
X62261904Y-52602580D01*
X62261904Y-52602580D02*
X62309523Y-52650200D01*
X62309523Y-52650200D02*
X62404761Y-52697819D01*
X62404761Y-52697819D02*
X62690475Y-52697819D01*
X62690475Y-52697819D02*
X62785713Y-52650200D01*
X62785713Y-52650200D02*
X62833332Y-52602580D01*
X61261904Y-52697819D02*
X61833332Y-52697819D01*
X61547618Y-52697819D02*
X61547618Y-51697819D01*
X61547618Y-51697819D02*
X61642856Y-51840676D01*
X61642856Y-51840676D02*
X61738094Y-51935914D01*
X61738094Y-51935914D02*
X61833332Y-51983533D01*
X69309524Y-53307819D02*
X69309524Y-54117342D01*
X69309524Y-54117342D02*
X69261905Y-54212580D01*
X69261905Y-54212580D02*
X69214286Y-54260200D01*
X69214286Y-54260200D02*
X69119048Y-54307819D01*
X69119048Y-54307819D02*
X68928572Y-54307819D01*
X68928572Y-54307819D02*
X68833334Y-54260200D01*
X68833334Y-54260200D02*
X68785715Y-54212580D01*
X68785715Y-54212580D02*
X68738096Y-54117342D01*
X68738096Y-54117342D02*
X68738096Y-53307819D01*
X68404762Y-53307819D02*
X68071429Y-54307819D01*
X68071429Y-54307819D02*
X67738096Y-53307819D01*
X66690476Y-54022104D02*
X66214286Y-54022104D01*
X66785714Y-54307819D02*
X66452381Y-53307819D01*
X66452381Y-53307819D02*
X66119048Y-54307819D01*
X65452381Y-53784009D02*
X65309524Y-53831628D01*
X65309524Y-53831628D02*
X65261905Y-53879247D01*
X65261905Y-53879247D02*
X65214286Y-53974485D01*
X65214286Y-53974485D02*
X65214286Y-54117342D01*
X65214286Y-54117342D02*
X65261905Y-54212580D01*
X65261905Y-54212580D02*
X65309524Y-54260200D01*
X65309524Y-54260200D02*
X65404762Y-54307819D01*
X65404762Y-54307819D02*
X65785714Y-54307819D01*
X65785714Y-54307819D02*
X65785714Y-53307819D01*
X65785714Y-53307819D02*
X65452381Y-53307819D01*
X65452381Y-53307819D02*
X65357143Y-53355438D01*
X65357143Y-53355438D02*
X65309524Y-53403057D01*
X65309524Y-53403057D02*
X65261905Y-53498295D01*
X65261905Y-53498295D02*
X65261905Y-53593533D01*
X65261905Y-53593533D02*
X65309524Y-53688771D01*
X65309524Y-53688771D02*
X65357143Y-53736390D01*
X65357143Y-53736390D02*
X65452381Y-53784009D01*
X65452381Y-53784009D02*
X65785714Y-53784009D01*
X64214286Y-54212580D02*
X64261905Y-54260200D01*
X64261905Y-54260200D02*
X64404762Y-54307819D01*
X64404762Y-54307819D02*
X64500000Y-54307819D01*
X64500000Y-54307819D02*
X64642857Y-54260200D01*
X64642857Y-54260200D02*
X64738095Y-54164961D01*
X64738095Y-54164961D02*
X64785714Y-54069723D01*
X64785714Y-54069723D02*
X64833333Y-53879247D01*
X64833333Y-53879247D02*
X64833333Y-53736390D01*
X64833333Y-53736390D02*
X64785714Y-53545914D01*
X64785714Y-53545914D02*
X64738095Y-53450676D01*
X64738095Y-53450676D02*
X64642857Y-53355438D01*
X64642857Y-53355438D02*
X64500000Y-53307819D01*
X64500000Y-53307819D02*
X64404762Y-53307819D01*
X64404762Y-53307819D02*
X64261905Y-53355438D01*
X64261905Y-53355438D02*
X64214286Y-53403057D01*
X63071428Y-54260200D02*
X62928571Y-54307819D01*
X62928571Y-54307819D02*
X62690476Y-54307819D01*
X62690476Y-54307819D02*
X62595238Y-54260200D01*
X62595238Y-54260200D02*
X62547619Y-54212580D01*
X62547619Y-54212580D02*
X62500000Y-54117342D01*
X62500000Y-54117342D02*
X62500000Y-54022104D01*
X62500000Y-54022104D02*
X62547619Y-53926866D01*
X62547619Y-53926866D02*
X62595238Y-53879247D01*
X62595238Y-53879247D02*
X62690476Y-53831628D01*
X62690476Y-53831628D02*
X62880952Y-53784009D01*
X62880952Y-53784009D02*
X62976190Y-53736390D01*
X62976190Y-53736390D02*
X63023809Y-53688771D01*
X63023809Y-53688771D02*
X63071428Y-53593533D01*
X63071428Y-53593533D02*
X63071428Y-53498295D01*
X63071428Y-53498295D02*
X63023809Y-53403057D01*
X63023809Y-53403057D02*
X62976190Y-53355438D01*
X62976190Y-53355438D02*
X62880952Y-53307819D01*
X62880952Y-53307819D02*
X62642857Y-53307819D01*
X62642857Y-53307819D02*
X62500000Y-53355438D01*
X61690476Y-54260200D02*
X61785714Y-54307819D01*
X61785714Y-54307819D02*
X61976190Y-54307819D01*
X61976190Y-54307819D02*
X62071428Y-54260200D01*
X62071428Y-54260200D02*
X62119047Y-54164961D01*
X62119047Y-54164961D02*
X62119047Y-53784009D01*
X62119047Y-53784009D02*
X62071428Y-53688771D01*
X62071428Y-53688771D02*
X61976190Y-53641152D01*
X61976190Y-53641152D02*
X61785714Y-53641152D01*
X61785714Y-53641152D02*
X61690476Y-53688771D01*
X61690476Y-53688771D02*
X61642857Y-53784009D01*
X61642857Y-53784009D02*
X61642857Y-53879247D01*
X61642857Y-53879247D02*
X62119047Y-53974485D01*
X61214285Y-53641152D02*
X61214285Y-54307819D01*
X61214285Y-53736390D02*
X61166666Y-53688771D01*
X61166666Y-53688771D02*
X61071428Y-53641152D01*
X61071428Y-53641152D02*
X60928571Y-53641152D01*
X60928571Y-53641152D02*
X60833333Y-53688771D01*
X60833333Y-53688771D02*
X60785714Y-53784009D01*
X60785714Y-53784009D02*
X60785714Y-54307819D01*
X60357142Y-54260200D02*
X60261904Y-54307819D01*
X60261904Y-54307819D02*
X60071428Y-54307819D01*
X60071428Y-54307819D02*
X59976190Y-54260200D01*
X59976190Y-54260200D02*
X59928571Y-54164961D01*
X59928571Y-54164961D02*
X59928571Y-54117342D01*
X59928571Y-54117342D02*
X59976190Y-54022104D01*
X59976190Y-54022104D02*
X60071428Y-53974485D01*
X60071428Y-53974485D02*
X60214285Y-53974485D01*
X60214285Y-53974485D02*
X60309523Y-53926866D01*
X60309523Y-53926866D02*
X60357142Y-53831628D01*
X60357142Y-53831628D02*
X60357142Y-53784009D01*
X60357142Y-53784009D02*
X60309523Y-53688771D01*
X60309523Y-53688771D02*
X60214285Y-53641152D01*
X60214285Y-53641152D02*
X60071428Y-53641152D01*
X60071428Y-53641152D02*
X59976190Y-53688771D01*
X59357142Y-54307819D02*
X59452380Y-54260200D01*
X59452380Y-54260200D02*
X59499999Y-54212580D01*
X59499999Y-54212580D02*
X59547618Y-54117342D01*
X59547618Y-54117342D02*
X59547618Y-53831628D01*
X59547618Y-53831628D02*
X59499999Y-53736390D01*
X59499999Y-53736390D02*
X59452380Y-53688771D01*
X59452380Y-53688771D02*
X59357142Y-53641152D01*
X59357142Y-53641152D02*
X59214285Y-53641152D01*
X59214285Y-53641152D02*
X59119047Y-53688771D01*
X59119047Y-53688771D02*
X59071428Y-53736390D01*
X59071428Y-53736390D02*
X59023809Y-53831628D01*
X59023809Y-53831628D02*
X59023809Y-54117342D01*
X59023809Y-54117342D02*
X59071428Y-54212580D01*
X59071428Y-54212580D02*
X59119047Y-54260200D01*
X59119047Y-54260200D02*
X59214285Y-54307819D01*
X59214285Y-54307819D02*
X59357142Y-54307819D01*
X58595237Y-54307819D02*
X58595237Y-53641152D01*
X58595237Y-53831628D02*
X58547618Y-53736390D01*
X58547618Y-53736390D02*
X58499999Y-53688771D01*
X58499999Y-53688771D02*
X58404761Y-53641152D01*
X58404761Y-53641152D02*
X58309523Y-53641152D01*
X66380951Y-54917819D02*
X66047618Y-55917819D01*
X66047618Y-55917819D02*
X65714285Y-54917819D01*
X65190475Y-54917819D02*
X65095237Y-54917819D01*
X65095237Y-54917819D02*
X64999999Y-54965438D01*
X64999999Y-54965438D02*
X64952380Y-55013057D01*
X64952380Y-55013057D02*
X64904761Y-55108295D01*
X64904761Y-55108295D02*
X64857142Y-55298771D01*
X64857142Y-55298771D02*
X64857142Y-55536866D01*
X64857142Y-55536866D02*
X64904761Y-55727342D01*
X64904761Y-55727342D02*
X64952380Y-55822580D01*
X64952380Y-55822580D02*
X64999999Y-55870200D01*
X64999999Y-55870200D02*
X65095237Y-55917819D01*
X65095237Y-55917819D02*
X65190475Y-55917819D01*
X65190475Y-55917819D02*
X65285713Y-55870200D01*
X65285713Y-55870200D02*
X65333332Y-55822580D01*
X65333332Y-55822580D02*
X65380951Y-55727342D01*
X65380951Y-55727342D02*
X65428570Y-55536866D01*
X65428570Y-55536866D02*
X65428570Y-55298771D01*
X65428570Y-55298771D02*
X65380951Y-55108295D01*
X65380951Y-55108295D02*
X65333332Y-55013057D01*
X65333332Y-55013057D02*
X65285713Y-54965438D01*
X65285713Y-54965438D02*
X65190475Y-54917819D01*
X64428570Y-55822580D02*
X64380951Y-55870200D01*
X64380951Y-55870200D02*
X64428570Y-55917819D01*
X64428570Y-55917819D02*
X64476189Y-55870200D01*
X64476189Y-55870200D02*
X64428570Y-55822580D01*
X64428570Y-55822580D02*
X64428570Y-55917819D01*
X63428571Y-55917819D02*
X63999999Y-55917819D01*
X63714285Y-55917819D02*
X63714285Y-54917819D01*
X63714285Y-54917819D02*
X63809523Y-55060676D01*
X63809523Y-55060676D02*
X63904761Y-55155914D01*
X63904761Y-55155914D02*
X63999999Y-55203533D01*
X61666666Y-55917819D02*
X61999999Y-55441628D01*
X62238094Y-55917819D02*
X62238094Y-54917819D01*
X62238094Y-54917819D02*
X61857142Y-54917819D01*
X61857142Y-54917819D02*
X61761904Y-54965438D01*
X61761904Y-54965438D02*
X61714285Y-55013057D01*
X61714285Y-55013057D02*
X61666666Y-55108295D01*
X61666666Y-55108295D02*
X61666666Y-55251152D01*
X61666666Y-55251152D02*
X61714285Y-55346390D01*
X61714285Y-55346390D02*
X61761904Y-55394009D01*
X61761904Y-55394009D02*
X61857142Y-55441628D01*
X61857142Y-55441628D02*
X62238094Y-55441628D01*
X60714285Y-55917819D02*
X61285713Y-55917819D01*
X60999999Y-55917819D02*
X60999999Y-54917819D01*
X60999999Y-54917819D02*
X61095237Y-55060676D01*
X61095237Y-55060676D02*
X61190475Y-55155914D01*
X61190475Y-55155914D02*
X61285713Y-55203533D01*
X69738094Y-56861152D02*
X69547618Y-57527819D01*
X69547618Y-57527819D02*
X69357142Y-57051628D01*
X69357142Y-57051628D02*
X69166666Y-57527819D01*
X69166666Y-57527819D02*
X68976190Y-56861152D01*
X68690475Y-56861152D02*
X68499999Y-57527819D01*
X68499999Y-57527819D02*
X68309523Y-57051628D01*
X68309523Y-57051628D02*
X68119047Y-57527819D01*
X68119047Y-57527819D02*
X67928571Y-56861152D01*
X67642856Y-56861152D02*
X67452380Y-57527819D01*
X67452380Y-57527819D02*
X67261904Y-57051628D01*
X67261904Y-57051628D02*
X67071428Y-57527819D01*
X67071428Y-57527819D02*
X66880952Y-56861152D01*
X66499999Y-57432580D02*
X66452380Y-57480200D01*
X66452380Y-57480200D02*
X66499999Y-57527819D01*
X66499999Y-57527819D02*
X66547618Y-57480200D01*
X66547618Y-57480200D02*
X66499999Y-57432580D01*
X66499999Y-57432580D02*
X66499999Y-57527819D01*
X66023809Y-57527819D02*
X66023809Y-56861152D01*
X66023809Y-56527819D02*
X66071428Y-56575438D01*
X66071428Y-56575438D02*
X66023809Y-56623057D01*
X66023809Y-56623057D02*
X65976190Y-56575438D01*
X65976190Y-56575438D02*
X66023809Y-56527819D01*
X66023809Y-56527819D02*
X66023809Y-56623057D01*
X65404762Y-57527819D02*
X65500000Y-57480200D01*
X65500000Y-57480200D02*
X65547619Y-57432580D01*
X65547619Y-57432580D02*
X65595238Y-57337342D01*
X65595238Y-57337342D02*
X65595238Y-57051628D01*
X65595238Y-57051628D02*
X65547619Y-56956390D01*
X65547619Y-56956390D02*
X65500000Y-56908771D01*
X65500000Y-56908771D02*
X65404762Y-56861152D01*
X65404762Y-56861152D02*
X65261905Y-56861152D01*
X65261905Y-56861152D02*
X65166667Y-56908771D01*
X65166667Y-56908771D02*
X65119048Y-56956390D01*
X65119048Y-56956390D02*
X65071429Y-57051628D01*
X65071429Y-57051628D02*
X65071429Y-57337342D01*
X65071429Y-57337342D02*
X65119048Y-57432580D01*
X65119048Y-57432580D02*
X65166667Y-57480200D01*
X65166667Y-57480200D02*
X65261905Y-57527819D01*
X65261905Y-57527819D02*
X65404762Y-57527819D01*
X64642857Y-57527819D02*
X64642857Y-56861152D01*
X64642857Y-57051628D02*
X64595238Y-56956390D01*
X64595238Y-56956390D02*
X64547619Y-56908771D01*
X64547619Y-56908771D02*
X64452381Y-56861152D01*
X64452381Y-56861152D02*
X64357143Y-56861152D01*
X63880952Y-57527819D02*
X63976190Y-57480200D01*
X63976190Y-57480200D02*
X64023809Y-57432580D01*
X64023809Y-57432580D02*
X64071428Y-57337342D01*
X64071428Y-57337342D02*
X64071428Y-57051628D01*
X64071428Y-57051628D02*
X64023809Y-56956390D01*
X64023809Y-56956390D02*
X63976190Y-56908771D01*
X63976190Y-56908771D02*
X63880952Y-56861152D01*
X63880952Y-56861152D02*
X63738095Y-56861152D01*
X63738095Y-56861152D02*
X63642857Y-56908771D01*
X63642857Y-56908771D02*
X63595238Y-56956390D01*
X63595238Y-56956390D02*
X63547619Y-57051628D01*
X63547619Y-57051628D02*
X63547619Y-57337342D01*
X63547619Y-57337342D02*
X63595238Y-57432580D01*
X63595238Y-57432580D02*
X63642857Y-57480200D01*
X63642857Y-57480200D02*
X63738095Y-57527819D01*
X63738095Y-57527819D02*
X63880952Y-57527819D01*
X62690476Y-57527819D02*
X62690476Y-56527819D01*
X62690476Y-57480200D02*
X62785714Y-57527819D01*
X62785714Y-57527819D02*
X62976190Y-57527819D01*
X62976190Y-57527819D02*
X63071428Y-57480200D01*
X63071428Y-57480200D02*
X63119047Y-57432580D01*
X63119047Y-57432580D02*
X63166666Y-57337342D01*
X63166666Y-57337342D02*
X63166666Y-57051628D01*
X63166666Y-57051628D02*
X63119047Y-56956390D01*
X63119047Y-56956390D02*
X63071428Y-56908771D01*
X63071428Y-56908771D02*
X62976190Y-56861152D01*
X62976190Y-56861152D02*
X62785714Y-56861152D01*
X62785714Y-56861152D02*
X62690476Y-56908771D01*
X61833333Y-57480200D02*
X61928571Y-57527819D01*
X61928571Y-57527819D02*
X62119047Y-57527819D01*
X62119047Y-57527819D02*
X62214285Y-57480200D01*
X62214285Y-57480200D02*
X62261904Y-57384961D01*
X62261904Y-57384961D02*
X62261904Y-57004009D01*
X62261904Y-57004009D02*
X62214285Y-56908771D01*
X62214285Y-56908771D02*
X62119047Y-56861152D01*
X62119047Y-56861152D02*
X61928571Y-56861152D01*
X61928571Y-56861152D02*
X61833333Y-56908771D01*
X61833333Y-56908771D02*
X61785714Y-57004009D01*
X61785714Y-57004009D02*
X61785714Y-57099247D01*
X61785714Y-57099247D02*
X62261904Y-57194485D01*
X61214285Y-57527819D02*
X61309523Y-57480200D01*
X61309523Y-57480200D02*
X61357142Y-57432580D01*
X61357142Y-57432580D02*
X61404761Y-57337342D01*
X61404761Y-57337342D02*
X61404761Y-57051628D01*
X61404761Y-57051628D02*
X61357142Y-56956390D01*
X61357142Y-56956390D02*
X61309523Y-56908771D01*
X61309523Y-56908771D02*
X61214285Y-56861152D01*
X61214285Y-56861152D02*
X61071428Y-56861152D01*
X61071428Y-56861152D02*
X60976190Y-56908771D01*
X60976190Y-56908771D02*
X60928571Y-56956390D01*
X60928571Y-56956390D02*
X60880952Y-57051628D01*
X60880952Y-57051628D02*
X60880952Y-57337342D01*
X60880952Y-57337342D02*
X60928571Y-57432580D01*
X60928571Y-57432580D02*
X60976190Y-57480200D01*
X60976190Y-57480200D02*
X61071428Y-57527819D01*
X61071428Y-57527819D02*
X61214285Y-57527819D01*
X60452380Y-57432580D02*
X60404761Y-57480200D01*
X60404761Y-57480200D02*
X60452380Y-57527819D01*
X60452380Y-57527819D02*
X60499999Y-57480200D01*
X60499999Y-57480200D02*
X60452380Y-57432580D01*
X60452380Y-57432580D02*
X60452380Y-57527819D01*
X59547619Y-57480200D02*
X59642857Y-57527819D01*
X59642857Y-57527819D02*
X59833333Y-57527819D01*
X59833333Y-57527819D02*
X59928571Y-57480200D01*
X59928571Y-57480200D02*
X59976190Y-57432580D01*
X59976190Y-57432580D02*
X60023809Y-57337342D01*
X60023809Y-57337342D02*
X60023809Y-57051628D01*
X60023809Y-57051628D02*
X59976190Y-56956390D01*
X59976190Y-56956390D02*
X59928571Y-56908771D01*
X59928571Y-56908771D02*
X59833333Y-56861152D01*
X59833333Y-56861152D02*
X59642857Y-56861152D01*
X59642857Y-56861152D02*
X59547619Y-56908771D01*
X58976190Y-57527819D02*
X59071428Y-57480200D01*
X59071428Y-57480200D02*
X59119047Y-57432580D01*
X59119047Y-57432580D02*
X59166666Y-57337342D01*
X59166666Y-57337342D02*
X59166666Y-57051628D01*
X59166666Y-57051628D02*
X59119047Y-56956390D01*
X59119047Y-56956390D02*
X59071428Y-56908771D01*
X59071428Y-56908771D02*
X58976190Y-56861152D01*
X58976190Y-56861152D02*
X58833333Y-56861152D01*
X58833333Y-56861152D02*
X58738095Y-56908771D01*
X58738095Y-56908771D02*
X58690476Y-56956390D01*
X58690476Y-56956390D02*
X58642857Y-57051628D01*
X58642857Y-57051628D02*
X58642857Y-57337342D01*
X58642857Y-57337342D02*
X58690476Y-57432580D01*
X58690476Y-57432580D02*
X58738095Y-57480200D01*
X58738095Y-57480200D02*
X58833333Y-57527819D01*
X58833333Y-57527819D02*
X58976190Y-57527819D01*
X58214285Y-57527819D02*
X58214285Y-56861152D01*
X58214285Y-56956390D02*
X58166666Y-56908771D01*
X58166666Y-56908771D02*
X58071428Y-56861152D01*
X58071428Y-56861152D02*
X57928571Y-56861152D01*
X57928571Y-56861152D02*
X57833333Y-56908771D01*
X57833333Y-56908771D02*
X57785714Y-57004009D01*
X57785714Y-57004009D02*
X57785714Y-57527819D01*
X57785714Y-57004009D02*
X57738095Y-56908771D01*
X57738095Y-56908771D02*
X57642857Y-56861152D01*
X57642857Y-56861152D02*
X57500000Y-56861152D01*
X57500000Y-56861152D02*
X57404761Y-56908771D01*
X57404761Y-56908771D02*
X57357142Y-57004009D01*
X57357142Y-57004009D02*
X57357142Y-57527819D01*
X65947895Y-66512839D02*
X65947895Y-66036649D01*
X65662180Y-66608077D02*
X66662180Y-66274744D01*
X66662180Y-66274744D02*
X65662180Y-65941411D01*
X65662180Y-65608077D02*
X66662180Y-65608077D01*
X66662180Y-65608077D02*
X66662180Y-65369982D01*
X66662180Y-65369982D02*
X66614561Y-65227125D01*
X66614561Y-65227125D02*
X66519323Y-65131887D01*
X66519323Y-65131887D02*
X66424085Y-65084268D01*
X66424085Y-65084268D02*
X66233609Y-65036649D01*
X66233609Y-65036649D02*
X66090752Y-65036649D01*
X66090752Y-65036649D02*
X65900276Y-65084268D01*
X65900276Y-65084268D02*
X65805038Y-65131887D01*
X65805038Y-65131887D02*
X65709800Y-65227125D01*
X65709800Y-65227125D02*
X65662180Y-65369982D01*
X65662180Y-65369982D02*
X65662180Y-65608077D01*
X65662180Y-64608077D02*
X66662180Y-64608077D01*
X66662180Y-64608077D02*
X66662180Y-64369982D01*
X66662180Y-64369982D02*
X66614561Y-64227125D01*
X66614561Y-64227125D02*
X66519323Y-64131887D01*
X66519323Y-64131887D02*
X66424085Y-64084268D01*
X66424085Y-64084268D02*
X66233609Y-64036649D01*
X66233609Y-64036649D02*
X66090752Y-64036649D01*
X66090752Y-64036649D02*
X65900276Y-64084268D01*
X65900276Y-64084268D02*
X65805038Y-64131887D01*
X65805038Y-64131887D02*
X65709800Y-64227125D01*
X65709800Y-64227125D02*
X65662180Y-64369982D01*
X65662180Y-64369982D02*
X65662180Y-64608077D01*
X65662180Y-63036649D02*
X66138371Y-63369982D01*
X65662180Y-63608077D02*
X66662180Y-63608077D01*
X66662180Y-63608077D02*
X66662180Y-63227125D01*
X66662180Y-63227125D02*
X66614561Y-63131887D01*
X66614561Y-63131887D02*
X66566942Y-63084268D01*
X66566942Y-63084268D02*
X66471704Y-63036649D01*
X66471704Y-63036649D02*
X66328847Y-63036649D01*
X66328847Y-63036649D02*
X66233609Y-63084268D01*
X66233609Y-63084268D02*
X66185990Y-63131887D01*
X66185990Y-63131887D02*
X66138371Y-63227125D01*
X66138371Y-63227125D02*
X66138371Y-63608077D01*
X61432839Y-66386104D02*
X60956649Y-66386104D01*
X61528077Y-66671819D02*
X61194744Y-65671819D01*
X61194744Y-65671819D02*
X60861411Y-66671819D01*
X60004268Y-66671819D02*
X60575696Y-66671819D01*
X60289982Y-66671819D02*
X60289982Y-65671819D01*
X60289982Y-65671819D02*
X60385220Y-65814676D01*
X60385220Y-65814676D02*
X60480458Y-65909914D01*
X60480458Y-65909914D02*
X60575696Y-65957533D01*
X61432839Y-63592104D02*
X60956649Y-63592104D01*
X61528077Y-63877819D02*
X61194744Y-62877819D01*
X61194744Y-62877819D02*
X60861411Y-63877819D01*
X60337601Y-62877819D02*
X60242363Y-62877819D01*
X60242363Y-62877819D02*
X60147125Y-62925438D01*
X60147125Y-62925438D02*
X60099506Y-62973057D01*
X60099506Y-62973057D02*
X60051887Y-63068295D01*
X60051887Y-63068295D02*
X60004268Y-63258771D01*
X60004268Y-63258771D02*
X60004268Y-63496866D01*
X60004268Y-63496866D02*
X60051887Y-63687342D01*
X60051887Y-63687342D02*
X60099506Y-63782580D01*
X60099506Y-63782580D02*
X60147125Y-63830200D01*
X60147125Y-63830200D02*
X60242363Y-63877819D01*
X60242363Y-63877819D02*
X60337601Y-63877819D01*
X60337601Y-63877819D02*
X60432839Y-63830200D01*
X60432839Y-63830200D02*
X60480458Y-63782580D01*
X60480458Y-63782580D02*
X60528077Y-63687342D01*
X60528077Y-63687342D02*
X60575696Y-63496866D01*
X60575696Y-63496866D02*
X60575696Y-63258771D01*
X60575696Y-63258771D02*
X60528077Y-63068295D01*
X60528077Y-63068295D02*
X60480458Y-62973057D01*
X60480458Y-62973057D02*
X60432839Y-62925438D01*
X60432839Y-62925438D02*
X60337601Y-62877819D01*
%TO.C,M3*%
X76110000Y-66040000D02*
G75*
G03*
X76110000Y-66040000I-2450000J0D01*
G01*
%TO.C,M2*%
X76110000Y-53340000D02*
G75*
G03*
X76110000Y-53340000I-2450000J0D01*
G01*
%TO.C,M1*%
X55790000Y-53340000D02*
G75*
G03*
X55790000Y-53340000I-2450000J0D01*
G01*
%TO.C,M4*%
X55790000Y-66040000D02*
G75*
G03*
X55790000Y-66040000I-2450000J0D01*
G01*
D11*
%TO.C,JP2*%
X64900000Y-67294000D02*
X64900000Y-65294000D01*
X64900000Y-65294000D02*
X62100000Y-65294000D01*
X62100000Y-67294000D02*
X64900000Y-67294000D01*
X62100000Y-65294000D02*
X62100000Y-67294000D01*
%TO.C,JP1*%
X64900000Y-64500000D02*
X64900000Y-62500000D01*
X64900000Y-62500000D02*
X62100000Y-62500000D01*
X62100000Y-64500000D02*
X64900000Y-64500000D01*
X62100000Y-62500000D02*
X62100000Y-64500000D01*
%TD*%
M02*
