M48
; DRILL file {KiCad 7.0.8-7.0.8~ubuntu22.04.1} date Mon 20 Nov 2023 04:19:25 PM PST
; FORMAT={-:-/ absolute / metric / decimal}
; #@! TF.CreationDate,2023-11-20T16:19:25-08:00
; #@! TF.GenerationSoftware,Kicad,Pcbnew,7.0.8-7.0.8~ubuntu22.04.1
; #@! TF.FileFunction,Plated,1,2,PTH
FMAT,2
METRIC
; #@! TA.AperFunction,Plated,PTH,ViaDrill
T1C0.400
; #@! TA.AperFunction,Plated,PTH,ComponentDrill
T2C2.700
%
G90
G05
T1
X53.888Y-59.512
X56.972Y-59.207
X58.522Y-59.36
X59.182Y-53.137
X60.401Y-55.143
X60.833Y-67.691
X61.519Y-63.475
X65.506Y-65.91
X65.532Y-64.897
X65.534Y-61.432
X67.361Y-58.141
X67.64Y-55.728
X67.767Y-67.691
X68.936Y-60.071
X70.312Y-59.169
X70.581Y-64.904
T2
X53.34Y-53.34
X53.34Y-66.04
X73.66Y-53.34
X73.66Y-66.04
T0
M30
