%TF.GenerationSoftware,KiCad,Pcbnew,7.0.8-7.0.8~ubuntu22.04.1*%
%TF.CreationDate,2023-11-20T16:19:22-08:00*%
%TF.ProjectId,uv_abc_sensor,75765f61-6263-45f7-9365-6e736f722e6b,rev?*%
%TF.SameCoordinates,Original*%
%TF.FileFunction,Soldermask,Top*%
%TF.FilePolarity,Negative*%
%FSLAX46Y46*%
G04 Gerber Fmt 4.6, Leading zero omitted, Abs format (unit mm)*
G04 Created by KiCad (PCBNEW 7.0.8-7.0.8~ubuntu22.04.1) date 2023-11-20 16:19:22*
%MOMM*%
%LPD*%
G01*
G04 APERTURE LIST*
G04 Aperture macros list*
%AMRoundRect*
0 Rectangle with rounded corners*
0 $1 Rounding radius*
0 $2 $3 $4 $5 $6 $7 $8 $9 X,Y pos of 4 corners*
0 Add a 4 corners polygon primitive as box body*
4,1,4,$2,$3,$4,$5,$6,$7,$8,$9,$2,$3,0*
0 Add four circle primitives for the rounded corners*
1,1,$1+$1,$2,$3*
1,1,$1+$1,$4,$5*
1,1,$1+$1,$6,$7*
1,1,$1+$1,$8,$9*
0 Add four rect primitives between the rounded corners*
20,1,$1+$1,$2,$3,$4,$5,0*
20,1,$1+$1,$4,$5,$6,$7,0*
20,1,$1+$1,$6,$7,$8,$9,0*
20,1,$1+$1,$8,$9,$2,$3,0*%
G04 Aperture macros list end*
%ADD10RoundRect,0.135000X0.185000X-0.135000X0.185000X0.135000X-0.185000X0.135000X-0.185000X-0.135000X0*%
%ADD11R,3.000000X0.800000*%
%ADD12R,1.600000X0.400000*%
%ADD13RoundRect,0.140000X-0.170000X0.140000X-0.170000X-0.140000X0.170000X-0.140000X0.170000X0.140000X0*%
%ADD14R,0.300000X0.300000*%
%ADD15C,3.570000*%
%ADD16RoundRect,0.135000X0.135000X0.185000X-0.135000X0.185000X-0.135000X-0.185000X0.135000X-0.185000X0*%
%ADD17RoundRect,0.135000X-0.185000X0.135000X-0.185000X-0.135000X0.185000X-0.135000X0.185000X0.135000X0*%
%ADD18RoundRect,0.150000X-0.512500X-0.150000X0.512500X-0.150000X0.512500X0.150000X-0.512500X0.150000X0*%
%ADD19RoundRect,0.140000X0.140000X0.170000X-0.140000X0.170000X-0.140000X-0.170000X0.140000X-0.170000X0*%
%ADD20RoundRect,0.135000X-0.135000X-0.185000X0.135000X-0.185000X0.135000X0.185000X-0.135000X0.185000X0*%
%ADD21RoundRect,0.150000X-0.150000X0.587500X-0.150000X-0.587500X0.150000X-0.587500X0.150000X0.587500X0*%
G04 APERTURE END LIST*
D10*
%TO.C,R2*%
X60833000Y-66831400D03*
X60833000Y-65811400D03*
%TD*%
D11*
%TO.C,J2*%
X74041000Y-56930000D03*
X74041000Y-62230000D03*
D12*
X71716000Y-61080000D03*
X71716000Y-60080000D03*
X71716000Y-59080000D03*
X71716000Y-58080000D03*
%TD*%
D13*
%TO.C,C4*%
X66319400Y-53139400D03*
X66319400Y-54099400D03*
%TD*%
D14*
%TO.C,U1*%
X62750000Y-58485800D03*
X63250000Y-58485800D03*
X63750000Y-58485800D03*
X64250000Y-58485800D03*
X64550000Y-59310800D03*
X64550000Y-59810800D03*
X64550000Y-60310800D03*
X64550000Y-60810800D03*
X64250000Y-61635800D03*
X63750000Y-61635800D03*
X63250000Y-61635800D03*
X62750000Y-61635800D03*
X62450000Y-60810800D03*
X62450000Y-60310800D03*
X62450000Y-59810800D03*
X62450000Y-59310800D03*
%TD*%
D15*
%TO.C,M3*%
X73660000Y-66040000D03*
%TD*%
D16*
%TO.C,R4*%
X58775600Y-62255400D03*
X57755600Y-62255400D03*
%TD*%
D10*
%TO.C,R7*%
X61175000Y-60325000D03*
X61175000Y-59305000D03*
%TD*%
D11*
%TO.C,J1*%
X52987000Y-62340000D03*
X52987000Y-57040000D03*
D12*
X55312000Y-58190000D03*
X55312000Y-59190000D03*
X55312000Y-60190000D03*
X55312000Y-61190000D03*
%TD*%
D13*
%TO.C,C3*%
X60579000Y-53114000D03*
X60579000Y-54074000D03*
%TD*%
D17*
%TO.C,R1*%
X65775000Y-58105000D03*
X65775000Y-59125000D03*
%TD*%
D15*
%TO.C,M2*%
X73660000Y-53340000D03*
%TD*%
D10*
%TO.C,R3*%
X70408800Y-66806000D03*
X70408800Y-65786000D03*
%TD*%
D18*
%TO.C,U2*%
X62362500Y-53136000D03*
X62362500Y-54086000D03*
X62362500Y-55036000D03*
X64637500Y-55036000D03*
X64637500Y-53136000D03*
%TD*%
D19*
%TO.C,C2*%
X63925000Y-62775000D03*
X62965000Y-62775000D03*
%TD*%
D15*
%TO.C,M1*%
X53340000Y-53340000D03*
%TD*%
%TO.C,M4*%
X53340000Y-66040000D03*
%TD*%
D20*
%TO.C,R6*%
X65750000Y-60300000D03*
X66770000Y-60300000D03*
%TD*%
D21*
%TO.C,Q1*%
X68590200Y-63889600D03*
X66690200Y-63889600D03*
X67640200Y-65764600D03*
%TD*%
%TO.C,Q2*%
X59213600Y-63936400D03*
X57313600Y-63936400D03*
X58263600Y-65811400D03*
%TD*%
D19*
%TO.C,C1*%
X63980000Y-57400000D03*
X63020000Y-57400000D03*
%TD*%
D16*
%TO.C,R5*%
X68152200Y-62208600D03*
X67132200Y-62208600D03*
%TD*%
M02*
